<svg width="14" height="14" viewBox="0 0 14 14" fill="none" xmlns="http://www.w3.org/2000/svg">
<path d="M3 1H11C11.6395 1 12 1.34336 12 2V4C12 4.47756 11.2907 4.70153 11 5L9 7C8.65116 7.29847 8 8.52244 8 9V11C8 11.3582 8.2907 11.8209 8 12L7 13C6.24419 13.4776 5 12.9551 5 12V9C5 8.58214 5.23256 7.29847 5 7L3 5C2.7093 4.70153 2 4.35817 2 4V2C2 1.28366 2.36047 1 3 1Z" stroke="#292D32" stroke-miterlimit="10" stroke-linecap="round" stroke-linejoin="round"/>
<path d="M7 1L4 6" stroke="#292D32" stroke-miterlimit="10" stroke-linecap="round" stroke-linejoin="round"/>
</svg>
