<svg width="324" height="80" viewBox="0 0 324 80" fill="none" xmlns="http://www.w3.org/2000/svg">
<path fill-rule="evenodd" clip-rule="evenodd" d="M319.66 65.8381L319.705 65.8836H311.223C310.573 65.8836 310.046 66.4105 310.046 67.0606C310.046 67.7106 310.573 68.2375 311.223 68.2375H318.215C321.412 68.2375 324.003 70.8286 324.003 74.0248C324.003 77.2211 321.412 79.8122 318.215 79.8122H305.868V79.2566L309.805 75.3156L309.732 75.243H318.215C318.888 75.243 319.434 74.6976 319.434 74.0248C319.434 73.3521 318.888 72.8067 318.215 72.8067H311.223C308.049 72.8067 305.477 70.234 305.477 67.0606C305.477 63.8871 308.049 61.3145 311.223 61.3145H323.612V61.8812L319.66 65.8381Z" fill="white"/>
<path d="M177.432 61.7578H168.539V65.3393H174.57C175.132 63.9408 176.29 62.5423 177.432 61.7578Z" fill="white"/>
<path d="M186.103 63.5488H183.757C180.207 63.5488 177.33 66.4267 177.33 69.9766V79.3718" stroke="white" stroke-width="4.41124"/>
<path d="M279.148 61.7578H270.256V65.3393H276.286C276.849 63.9408 278.007 62.5423 279.148 61.7578Z" fill="white"/>
<path d="M287.819 63.5488H285.474C281.924 63.5488 279.047 66.4267 279.047 69.9766V79.3718" stroke="white" stroke-width="4.41124"/>
<path d="M150.244 61.7051V79.4249" stroke="white" stroke-width="4.56913"/>
<path d="M111.831 70.6887L111.831 61.7051L115.441 61.7051L115.441 67.7974C114.031 68.3653 112.622 69.5356 111.831 70.6887Z" fill="white"/>
<path d="M129.44 70.3582L129.44 79.3418L125.829 79.3418L125.829 73.2495C127.239 72.6815 128.649 71.5113 129.44 70.3582Z" fill="white"/>
<path d="M113.643 79.3819V76.9188C113.643 73.3859 116.507 70.522 120.04 70.522H121.203C124.736 70.522 127.6 67.6581 127.6 64.1252V61.6621" stroke="white" stroke-width="4.56913"/>
<path d="M53.3415 73.9688H48.2844L53.5807 79.27H58.6378L53.3415 73.9688Z" fill="white"/>
<path d="M12.0334 75.8088L13.9293 72.2188H8.75156C6.30445 72.2188 4.05738 73.5701 2.91014 75.7316L1 79.3305H5.09911L6.44995 76.8436C6.79634 76.2059 7.4639 75.8088 8.18962 75.8088H12.0334Z" fill="white"/>
<path d="M23.511 79.3476H19.4461L13.1417 67.6115C12.7612 66.9031 11.7461 66.901 11.3626 67.6078L9.77909 70.5263C9.44319 70.532 8.58352 70.54 7.83203 70.5263C7.14885 70.5139 5.95328 70.7657 5.50922 70.9708L9.83884 62.8433C10.212 62.1428 10.9411 61.7051 11.7348 61.7051H12.7794C13.5715 61.7051 14.2994 62.141 14.6733 62.8394L23.511 79.3476Z" fill="white"/>
<path d="M252.305 30.7148H240.119L252.882 43.4896H265.068L252.305 30.7148Z" fill="white"/>
<path d="M296.029 35.0426L300.599 26.3887H288.118C282.219 26.3887 276.802 29.646 274.037 34.8564L269.432 43.5316H279.313L282.57 37.5369C283.405 35.9997 285.014 35.0426 286.763 35.0426H296.029Z" fill="white"/>
<path d="M323.696 43.5727H313.897L298.7 15.2824C297.783 13.5749 295.336 13.5698 294.412 15.2735L290.595 22.3088C289.785 22.3225 287.713 22.3418 285.901 22.3088C284.254 22.2788 281.372 22.8857 280.302 23.3802L290.739 3.78861C291.638 2.09995 293.396 1.04492 295.309 1.04492H297.827C299.736 1.04492 301.491 2.09578 302.392 3.77923L323.696 43.5727Z" fill="white"/>
<path d="M126.571 1.04492H105.08V9.69882H119.654C121.013 6.31968 123.812 2.94054 126.571 1.04492Z" fill="white"/>
<path d="M147.526 5.37109H141.859C133.279 5.37109 126.323 12.3264 126.323 20.9061V43.6131" stroke="white" stroke-width="10.6613"/>
<path d="M31.4664 26.5943L23.0265 14.8086L14.6689 26.5943H31.4664Z" fill="white"/>
<path d="M55.3043 1.08594V26.2077C55.3043 33.3855 61.1231 39.2043 68.3009 39.2043H76.1087C83.2865 39.2043 89.1053 33.3855 89.1053 26.2077V1.08594" stroke="white" stroke-width="10.6613"/>
<path d="M163.542 1.08594V26.2077C163.542 33.3855 169.361 39.2043 176.538 39.2043H184.346C191.524 39.2043 197.343 33.3855 197.343 26.2077V1.08594" stroke="white" stroke-width="10.6613"/>
<path d="M39.3299 5.33008H16.0255C10.1374 5.33008 5.3642 10.1033 5.3642 15.9914V43.5721" stroke="white" stroke-width="10.6613"/>
<path fill-rule="evenodd" clip-rule="evenodd" d="M88.4058 68.6363V68.6273L91.1197 65.9109C90.3183 64.4708 89.1501 63.2556 87.7213 62.397C85.7985 61.2415 83.5285 60.8067 81.3154 61.1698C79.1023 61.5329 77.0898 62.6704 75.6363 64.3798C74.1827 66.0891 73.3824 68.2594 73.3779 70.5041C73.3735 72.7488 74.1651 74.9223 75.6118 76.6374C77.0586 78.3526 79.0665 79.4981 81.2782 79.8701C83.4898 80.242 85.7615 79.8162 87.6888 78.6685C89.1409 77.8037 90.3265 76.5715 91.1345 75.1085L88.4929 72.4645L88.3543 72.4168C87.9062 73.7223 87.0097 74.8263 85.8245 75.5321C84.6393 76.2379 83.2424 76.4997 81.8823 76.271C80.5223 76.0423 79.2875 75.3378 78.3978 74.2831C77.5081 73.2283 77.0213 71.8918 77.0241 70.5114C77.0268 69.131 77.519 67.7964 78.4128 66.7452C79.3067 65.6941 80.5443 64.9945 81.9052 64.7713C83.2662 64.548 84.6621 64.8154 85.8445 65.5259C87.0269 66.2364 87.9189 67.3439 88.3618 68.6512L88.4058 68.6363Z" fill="white"/>
<path fill-rule="evenodd" clip-rule="evenodd" d="M252.018 68.6364V68.6271L254.732 65.9106C253.931 64.4706 252.763 63.2556 251.334 62.397C249.411 61.2415 247.141 60.8067 244.928 61.1698C242.715 61.5329 240.703 62.6704 239.249 64.3798C237.795 66.0891 236.995 68.2594 236.991 70.5041C236.986 72.7488 237.778 74.9223 239.225 76.6374C240.671 78.3526 242.679 79.4981 244.891 79.8701C247.102 80.242 249.374 79.8162 251.302 78.6685C252.754 77.8038 253.939 76.5716 254.747 75.1086L252.105 72.4644L251.967 72.4168C251.519 73.7223 250.622 74.8263 249.437 75.5321C248.252 76.2379 246.855 76.4997 245.495 76.271C244.135 76.0423 242.9 75.3378 242.01 74.2831C241.121 73.2283 240.634 71.8918 240.637 70.5114C240.64 69.131 241.132 67.7964 242.026 66.7452C242.919 65.6941 244.157 64.9945 245.518 64.7713C246.879 64.548 248.275 64.8154 249.457 65.5259C250.64 66.2364 251.532 67.3439 251.974 68.6512L252.018 68.6364Z" fill="white"/>
<path d="M218.958 77.4878H208.359C206.436 77.4878 204.877 75.9288 204.877 74.0056V74.0056C204.877 72.0825 206.436 70.5234 208.359 70.5234H213.729" stroke="white" stroke-width="4.56913"/>
<path fill-rule="evenodd" clip-rule="evenodd" d="M202.589 69.4711C203.682 67.9197 205.441 66.8718 207.451 66.7444C207.799 66.1787 208.425 65.8016 209.138 65.8016H218.954V61.2324H209.138C205.521 61.2324 202.589 64.1646 202.589 67.7815V69.4711Z" fill="white"/>
<path fill-rule="evenodd" clip-rule="evenodd" d="M224.39 0H219.06V5.33065V43.5314H229.721V19.9857L229.415 17.0205L229.721 16.8378V10.6613H248.314C249.688 10.6613 250.802 11.7751 250.802 13.1489V14.4905C250.802 15.8644 249.688 16.9781 248.314 16.9781H239.954L239.997 17.0205L230.607 26.4189V27.6394H248.314C255.576 27.6394 261.463 21.7524 261.463 14.4905V13.1489C261.463 5.88698 255.576 0 248.314 0H224.39Z" fill="white"/>
<path fill-rule="evenodd" clip-rule="evenodd" d="M41.7619 61.2227H39.5498V63.4348V79.2872H43.974V69.8541L43.8282 68.6471L43.974 68.5565V65.6469H51.6899C52.26 65.6469 52.7222 66.1091 52.7222 66.6792V67.2359C52.7222 67.806 52.26 68.2682 51.6899 68.2682H47.624L47.9416 68.5752L44.3417 72.3065V72.6924H51.6899C54.7034 72.6924 57.1464 70.2494 57.1464 67.2359V66.6792C57.1464 63.6656 54.7034 61.2227 51.6899 61.2227H41.7619ZM44.3417 68.3281L44.4381 68.2682H44.3417V68.3281Z" fill="white"/>
</svg>
